HIERARCHY
ROOT Hips
{
  OFFSET 263.056 91.6644 -274.608
  CHANNELS 6 Xposition Yposition Zposition Zrotation Xrotation Yrotation
  JOINT LeftUpLeg
  {
    OFFSET 8.64259 1.95398 -2.38835
    CHANNELS 3 Zrotation Xrotation Yrotation
    JOINT LeftLeg
    {
      OFFSET 43.7702 0 0
      CHANNELS 3 Zrotation Xrotation Yrotation
      JOINT LeftFoot
      {
        OFFSET 40.6238 0 0
        CHANNELS 3 Zrotation Xrotation Yrotation
        JOINT LeftToeBase
        {
          OFFSET 12.7242 0 0
          CHANNELS 3 Zrotation Xrotation Yrotation
          End Site
          {
            OFFSET 0 0 0
          }
        }
      }
    }
  }
  JOINT RightUpLeg
  {
    OFFSET -8.2249 1.95398 -2.59336
    CHANNELS 3 Zrotation Xrotation Yrotation
    JOINT RightLeg
    {
      OFFSET 43.5653 0 0
      CHANNELS 3 Zrotation Xrotation Yrotation
      JOINT RightFoot
      {
        OFFSET 40.6238 0 0
        CHANNELS 3 Zrotation Xrotation Yrotation
        JOINT RightToeBase
        {
          OFFSET 12.7242 0 0
          CHANNELS 3 Zrotation Xrotation Yrotation
          End Site
          {
            OFFSET 0 0 0
          }
        }
      }
    }
  }
  JOINT Spine
  {
    OFFSET 0.165834 0.87714 6.61349
    CHANNELS 3 Zrotation Xrotation Yrotation
    JOINT Spine1
    {
      OFFSET 7.38963 1.71661e-005 0
      CHANNELS 3 Zrotation Xrotation Yrotation
      JOINT Spine2
      {
        OFFSET 11.9445 1.14441e-005 0
        CHANNELS 3 Zrotation Xrotation Yrotation
        JOINT Spine3
        {
          OFFSET 14.7254 4.19617e-005 0
          CHANNELS 3 Zrotation Xrotation Yrotation
          JOINT Spine4
          {
            OFFSET 10.9679 0 0
            CHANNELS 3 Zrotation Xrotation Yrotation
            JOINT RightShoulder
            {
              OFFSET 2.46616 -1.6653 3.69651
              CHANNELS 3 Zrotation Xrotation Yrotation
              JOINT RightArm
              {
                OFFSET 13.0012 0 0
                CHANNELS 3 Zrotation Xrotation Yrotation
                JOINT RightForeArm
                {
                  OFFSET 28.7848 1.52588e-005 0
                  CHANNELS 3 Zrotation Xrotation Yrotation
                  JOINT RightHand
                  {
                    OFFSET 26.5688 1.52588e-005 0
                    CHANNELS 3 Zrotation Xrotation Yrotation
                    End Site
                    {
                      OFFSET 0 0 0
                    }
                  }
                }
              }
            }
            JOINT LeftShoulder
            {
              OFFSET 2.38034 -1.29275 -3.7523
              CHANNELS 3 Zrotation Xrotation Yrotation
              JOINT LeftArm
              {
                OFFSET 16.3182 6.10352e-005 0
                CHANNELS 3 Zrotation Xrotation Yrotation
                JOINT LeftForeArm
                {
                  OFFSET 27.0901 0 0
                  CHANNELS 3 Zrotation Xrotation Yrotation
                  JOINT LeftHand
                  {
                    OFFSET 24.5451 1.52588e-005 0
                    CHANNELS 3 Zrotation Xrotation Yrotation
                    End Site
                    {
                      OFFSET 0 0 0
                    }
                  }
                }
              }
            }
            JOINT Neck
            {
              OFFSET 5.0226 -0.0266342 0
              CHANNELS 3 Zrotation Xrotation Yrotation
              JOINT Head
              {
                OFFSET 6.69364 2.86102e-005 0
                CHANNELS 3 Zrotation Xrotation Yrotation
                End Site
                {
                  OFFSET 0 0 0
                }
              }
            }
          }
        }
      }
    }
  }
}
MOTION
Frames:	14
Frame Time:	0.0416667
-281.957 95.0833 -282.096 72.4816 8.53077 98.9735 179.3 34.5047 102.05 -73.1012 37.6197 20.6703 139.903 34.1147 -40.9099 -4.78797 -36.9158 -2.45575 171.663 42.0794 88.6204 -138.882 80.7779 99.4168 6.33472 -6.59359 -1.02534 -98.5578 -38.8474 9.96786 -5.19871 6.14991 -91.8312 14.5363 -11.1958 -2.08521 2.91339 -11.2766 -1.58426 -19.939 -10.0472 -5.38432 0.0736473 -10.0472 -5.38434 77.5214 -61.9352 -114.849 31.2341 -19.9371 61.9661 -139.885 -26.0396 -105.399 -85.9657 -9.11412 6.84602 -96.3755 -45.9121 67.942 -27.5147 6.70369 16.4253 19.5962 -11.1437 -110.763 32.6847 3.62137 7.34486 13.3208 -0.901853 1.12912 -4.47256 -1.16965 0.468543 
-279.089 95.7529 -278.102 76.8717 -6.23031 93.304 -176.697 14.745 100.305 -54.1124 31.758 13.7711 135.239 43.6342 -27.6317 -5.73551 -33.8041 -8.39065 171.481 37.0301 90.0151 -36.7085 13.2266 10.4724 65.2068 1.01631 0.54728 42.5199 3.10446 1.37657 -3.34359 7.04252 -91.1421 12.7693 -7.18773 -1.43789 1.11769 -7.24395 -1.11855 -21.5445 -6.42231 -3.53947 -1.5319 -6.4223 -3.53947 80.3695 -54.4333 -113.673 35.2808 -12.8738 55.0017 -152.301 -26.7741 -115.354 -84.5563 -14.502 13.7043 -97.257 -40.7245 64.653 -27.1535 5.6106 10.8975 21.2658 -10.7721 -110.791 33.0107 3.60477 7.1835 16.7785 -1.74396 -1.23142 -1.50575 -1.31174 2.2587 
-275.984 94.8551 -274.149 76.6411 -22.5976 82.4059 -175.808 -0.351237 89.7456 -35.2021 28.7517 4.12596 95.6163 48.948 13.0831 8.42903 -18.2538 -10.6169 -179.365 40.488 88.1147 -22.4421 6.81725 0.841272 54.489 1.68797 1.44181 31.1282 0.435678 -3.42952 -1.70465 7.21144 -90.2547 12.4591 -3.50847 -0.112939 0.792995 -3.51005 0.0417846 -21.7782 -3.31204 -1.16342 -1.76552 -3.31203 -1.16342 82.9636 -50.3578 -111.353 36.3104 -9.0888 49.9113 -158.367 -25.1897 -117.096 -72.9417 -14.6969 17.8416 -98.3154 -39.0573 62.2432 -27.2917 5.63474 9.55576 23.8053 -9.40089 -106.825 28.0229 3.56743 9.04256 17.8613 -1.62618 0.141675 -0.14663 -1.55908 1.90567 
-270.549 93.6301 -269.559 79.509 -27.3516 80.2128 -176.342 -3.71032 87.5619 -41.0295 21.8933 1.87162 56.4834 7.45157 18.3501 62.3084 29.6458 -14.7085 -178.43 39.2341 87.17 -23.8224 3.44016 -0.543328 53.7761 1.97851 1.67381 32.4393 0.739778 -12.4092 -1.22617 7.39078 -89.7972 12.0994 -2.34142 0.664025 0.43032 -2.30996 0.766479 -22.1219 -2.43268 -0.0707927 -2.10928 -2.43266 -0.0707885 83.0719 -51.8248 -110.694 33.4051 -8.03813 46.8919 -155.115 -26.0622 -116.201 -83.5801 -11.5559 9.91187 -99.4071 -38.9149 60.4048 -29.1218 8.35109 9.50869 15.3554 -6.86336 -93.7065 29.0136 2.61706 5.33651 16.0019 -2.22788 1.08538 0.417637 -2.39438 1.91149 
-263.895 91.4382 -265.039 81.7366 -27.0711 81.7932 -176.326 0.0281139 90.5284 -49.9756 15.0018 1.76015 36.456 -14.6061 -0.400068 92.1193 50.5214 -20.7252 179.139 38.4766 88.473 -33.6559 10.4875 1.4361 59.4119 0.692534 0.614602 27.142 -0.891274 10.1708 -1.10969 7.52143 -89.9863 11.8356 -2.20027 0.261839 0.166462 -2.18662 0.358467 -22.3834 -2.17718 -0.411866 -2.37071 -2.1772 -0.411869 82.8326 -52.7082 -110.745 29.8785 -7.65564 42.1103 -150.689 -27.225 -115.5 -90.6151 -7.87456 3.70217 -100.763 -39.9407 58.6945 -30.2409 9.4358 9.64664 12.7479 -1.63425 -80.9758 22.2752 1.14855 1.29726 13.0583 -2.93844 2.98412 2.48841 -3.53509 1.30266 
-256.952 89.4138 -260.135 82.6209 -29.4134 84.0757 -175.393 8.67038 91.8505 -64.8356 13.7447 1.21909 37.6053 -14.2541 -1.18678 45.2221 22.7065 18.877 177.992 36.7915 92.9567 -44.4997 10.2043 1.86768 72.5599 -3.3852 -1.75528 26.0608 -1.0016 9.19153 -0.698825 7.59456 -90.2159 11.6863 -1.49161 -0.280359 0.0162258 -1.50252 -0.214427 -22.5248 -1.33836 -0.715757 -2.51217 -1.33838 -0.715764 81.2064 -53.9768 -112.648 27.2959 -9.03466 36.3441 -142.003 -31.1065 -112.279 -98.4731 -1.35393 -3.51645 -101.955 -40.9898 57.3039 -31.8024 9.21002 10.4245 10.5694 2.23237 -67.1894 26.9497 1.50793 1.71641 10.7962 -3.75936 2.71422 4.72822 -4.16697 1.67159 
-250.316 87.9171 -256.033 86.4539 -32.7263 89.9394 -174.887 16.1244 96.3763 -76.9107 15.3441 1.04267 39.8464 -13.3602 -0.405595 37.9086 11.1596 12.9013 179.429 31.5749 99.141 -50.9405 11.9374 -0.106213 76.1782 -6.53772 -3.0425 34.6589 0.309095 6.36003 -0.149546 8.13547 -90.7277 10.5942 -0.632099 -1.38671 -1.07736 -0.692532 -1.35756 -23.6063 -0.18619 -1.51255 -3.59362 -0.186194 -1.51255 80.3647 -52.1366 -114.534 25.8658 -9.23809 28.0027 -134.222 -33.2276 -108.784 -99.8879 3.72245 -8.23492 -103.862 -43.5735 55.6018 -32.138 7.4769 10.9388 6.89648 3.10227 -55.6351 29.3678 1.91561 2.69247 13.0812 -3.98559 4.86047 4.49995 -5.0646 0.381569 
-244.047 87.8911 -251.06 85.9232 -35.6655 88.3481 -173.623 25.5873 95.5894 -79.3744 13.4235 0.319992 43.4065 -10.8678 0.492958 42.7903 16.5674 6.12319 178.505 26.1933 98.2618 -51.5436 9.48699 0.0731455 81.5225 -8.33113 -3.5033 36.1228 0.454881 6.18275 0.32295 8.15112 -90.5257 10.575 0.40158 -1.08255 -1.09636 0.353534 -1.09917 -23.6295 0.708354 -0.91183 -3.61689 0.708338 -0.911831 80.3737 -50.3882 -115.187 25.917 -8.4467 20.4665 -121.922 -33.4173 -100.427 -97.6781 11.7821 -15.8861 -104.228 -44.102 55.3013 -34.3163 6.45874 15.4883 3.55469 0.848044 -51.7423 30.291 2.28359 3.71364 13.132 -5.17299 5.12148 4.81753 -6.34377 -0.560933 
-237.316 89.2748 -245.611 84.3089 -37.7844 85.442 -171.634 33.0588 93.476 -74.2995 10.3333 -0.510602 46.7566 -8.82368 1.37217 41.4467 15.9087 12.2485 178.543 19.013 96.3783 -46.7145 7.50571 -0.664836 82.1994 -8.48636 -3.49768 39.417 0.956101 9.82663 0.682686 7.94064 -90.2384 10.9962 1.24859 -0.59362 -0.674361 1.22128 -0.648009 -23.2141 1.36929 -0.190858 -3.20149 1.3693 -0.190854 81.8583 -48.7488 -113.604 27.9096 -7.81771 15.5082 -97.8871 -25.107 -86.948 -86.2886 25.9019 -34.4026 -102.405 -44.5129 58.2276 -37.3165 7.73799 21.2599 3.97124 1.36266 -54.4098 30.7971 2.37184 3.88466 10.8051 -6.96951 4.97715 5.95489 -8.01095 -1.07383 
-230.034 91.7433 -240.104 83.9517 -37.943 84.6622 -171.685 35.9966 92.5308 -61.8704 7.64831 -1.08275 48.6753 -7.50382 5.99867 44.9486 19.409 7.18395 179.333 10.188 95.1325 -38.8905 3.19486 -1.79304 73.7004 -5.8651 -2.87737 46.7639 1.91454 8.28933 0.914943 7.82083 -90.1268 11.2364 1.76199 -0.425544 -0.433443 1.74153 -0.502709 -22.9783 1.80839 0.123849 -2.9656 1.80838 0.123848 83.3 -47.4927 -111.873 29.5227 -8.31137 11.831 -72.7719 -11.6138 -84.7146 -63.5617 30.7959 -55.4375 -99.7886 -44.0548 62.0114 -40.6209 9.74636 26.092 4.21283 1.64109 -57.5136 30.1622 2.47154 4.39456 9.56534 -8.95138 5.03998 6.01166 -9.98271 -1.968 
-222.586 94.3757 -234.596 82.3784 -38.3228 81.706 -171.993 35.058 90.3678 -41.6532 6.67827 -2.22999 48.6511 -7.56227 5.3202 46.4143 21.401 7.78148 178.505 4.15186 91.128 -31.6988 -2.10329 -2.64356 60.9473 -0.94894 -0.480533 50.0033 2.58036 10.0282 1.16067 7.60464 -89.8274 11.6692 2.38927 0.0877593 0.000434543 2.39082 -0.0175474 -22.5508 2.25239 0.802132 -2.53811 2.2524 0.802135 84.1142 -46.8439 -110.847 30.7564 -9.40754 10.4761 -59.0269 -2.17257 -88.1947 -47.8403 22.5289 -56.0556 -98.0105 -42.8775 64.2969 -43.9901 9.74328 30.6317 2.81496 0.451351 -59.8468 31.8768 2.17378 2.98754 9.12757 -11.328 4.3598 6.07795 -12.1266 -1.88952 
-214.476 96.3986 -229.66 83.2126 -37.3135 81.5135 -174.456 28.5363 88.8414 -15.23 9.9182 -1.65547 42.3566 -11.1742 -1.95778 40.6006 15.2777 15.5714 176.54 -3.25188 89.1638 -25.219 -4.04347 -2.40631 46.6093 3.93383 3.60531 43.5089 1.81155 15.5479 1.16925 7.57055 -89.7113 11.7313 2.46108 0.316434 0.0626414 2.47265 0.207733 -22.4885 2.25215 1.04181 -2.47582 2.25216 1.04181 83.8102 -46.7891 -111.34 31.3246 -11.7585 11.0144 -47.1667 8.70178 -93.7655 -34.9263 12.9815 -46.6496 -96.6673 -41.8021 66.0088 -46.0651 7.62895 34.725 2.62383 -0.514874 -62.1223 31.1396 0.245029 -3.29094 9.64998 -12.8473 4.74055 4.81804 -13.7513 -2.90691 
-206.203 97.9663 -224.429 82.9828 -37.542 82.2681 -175.4 28.943 89.26 -6.93531 13.5519 -1.67341 40.826 -14.6982 -6.33149 40.3535 14.1365 10.2206 176.054 -7.26776 88.3266 -24.1149 -4.66348 -2.56458 42.7915 4.9188 4.70438 26.1354 -0.807553 7.45705 1.33844 7.4719 -89.8128 11.9322 2.74953 0.0766354 0.264178 2.75023 -0.04455 -22.2925 2.59928 0.900003 -2.27983 2.5993 0.900004 85.1025 -45.6077 -109.73 32.2856 -14.8898 11.4143 -35.9236 14.168 -100.858 -25.5629 5.28606 -29.5459 -95.3337 -40.9518 67.8401 -47.306 6.05865 37.0495 5.08414 -0.104344 -66.1695 30.7124 0.828577 -1.27613 10.9696 -13.8857 5.60366 3.08642 -14.9912 -3.56365 
-198.317 98.1681 -219.403 82.1589 -38.1231 83.2716 -175.142 29.6915 89.7795 -4.94314 11.9896 -1.58157 40.6639 -15.9023 -7.80804 38.7195 11.7666 8.01048 177.053 -6.43247 89.3843 -31.2669 0.0572189 -2.95206 39.866 4.49833 4.60371 28.339 -0.519633 7.52329 1.44842 7.24696 -89.9219 12.3863 2.91527 -0.176747 0.718603 2.90465 -0.304994 -21.8418 2.83349 0.708309 -1.82919 2.83349 0.708303 85.5791 -45.1393 -109.134 32.9393 -17.642 12.3744 -28.7622 14.4573 -103.826 -19.7222 1.17844 -12.7206 -94.0201 -40.4944 69.8211 -46.9912 4.10099 38.9571 7.97192 -0.0432654 -70.5751 29.157 1.07498 -0.246154 10.5402 -14.468 4.95189 2.21426 -15.3837 -3.71792 
